<svg width="500" height="500" viewBox="0 0 500 500" fill="none" xmlns="http://www.w3.org/2000/svg">
    <rect width="500" height="500" rx="250" fill="#1371FF"/>
    <path d="M398.898 340.738L398.897 340.737L381.972 311.951L381.969 311.946C377.517 304.393 367.8 301.745 360.155 306.43L360.145 306.436C352.664 311.044 350.32 320.911 354.749 328.46L354.751 328.465L365.07 346.013L365.072 346.016C366.908 349.134 364.581 352.796 361.469 352.796H139.531C136.416 352.796 134.09 349.137 135.928 346.016L135.93 346.013L246.898 157.285L246.9 157.283C248.548 154.475 252.452 154.476 254.1 157.283L254.102 157.285L310.137 252.581L310.138 252.583C314.614 260.188 324.4 262.75 331.961 258.097L331.964 258.096C339.445 253.487 341.791 243.618 337.352 236.068L337.352 236.068L275.11 130.208C263.98 111.278 237.037 111.25 225.89 130.208L102.102 340.737L102.102 340.738C90.7701 360.021 104.252 385 126.712 385H374.288C396.73 385 410.237 360.033 398.898 340.738Z" fill="white" stroke="white" stroke-width="10"/>
</svg>
